<svg width="512" height="512" viewBox="0 0 512 512" fill="none" xmlns="http://www.w3.org/2000/svg">
<rect width="512" height="512" rx="128" fill="#F87171"/>
<path d="M368.343 198.727C416.093 233.928 447 290.77 447 355H65C65 290.77 95.9073 234.275 142.963 199.075L101.29 156.748C94.9523 150.316 94.9523 140.321 101.29 133.889C107.628 127.37 117.525 127.37 123.863 133.889L171.352 181.605C196.79 168.742 225.44 161.267 256 161.267C286.213 161.267 314.863 168.742 340.04 181.605L387.182 133.889C393.52 127.37 403.417 127.37 409.755 133.889C416.093 140.321 416.093 150.316 409.755 156.748L368.343 198.727ZM333.615 293.464C343.513 293.464 351.5 285.555 351.5 275.734C351.5 265.999 343.513 258.09 333.615 258.09C323.718 258.09 315.731 265.999 315.731 275.734C315.731 285.555 323.718 293.464 333.615 293.464ZM178.385 293.464C188.282 293.464 196.356 285.555 196.356 275.734C196.356 265.999 188.282 258.09 178.385 258.09C168.487 258.09 160.5 265.999 160.5 275.734C160.5 285.555 168.487 293.464 178.385 293.464Z" fill="white"/>
</svg>
